<?xml version="1.0" encoding="utf-8"?>
<svg width="200" height="200" viewBox="0 0 200 200" fill="none" xmlns="http://www.w3.org/2000/svg">
  <circle cx="100" cy="100" r="90" fill="none" stroke="#ffd700" stroke-width="2" opacity="0.3"/>
  <circle cx="100" cy="100" r="60" fill="none" stroke="#ffd700" stroke-width="3"/>
  <circle cx="100" cy="100" r="40" fill="none" stroke="#ffd700" stroke-width="2" opacity="0.7"/>
  <ellipse cx="100" cy="60" rx="25" ry="8" fill="none" stroke="#ffd700" stroke-width="2"/>
  <path d="M 40 100 Q 70 90 100 100 Q 130 110 160 100" stroke="#ffd700" stroke-width="1" opacity="0.6"/>
  <path d="M 40 80 Q 70 70 100 80 Q 130 90 160 80" stroke="#ffd700" stroke-width="1" opacity="0.6"/>
  <path d="M 40 120 Q 70 110 100 120 Q 130 130 160 120" stroke="#ffd700" stroke-width="1" opacity="0.6"/>
  <circle cx="30" cy="30" r="1" fill="#ffd700" opacity="0.8"/>
  <circle cx="170" cy="40" r="1" fill="#ffd700" opacity="0.6"/>
  <circle cx="20" cy="160" r="1" fill="#ffd700" opacity="0.7"/>
  <circle cx="180" cy="170" r="1" fill="#ffd700" opacity="0.5"/>
  <circle cx="50" cy="180" r="1" fill="#ffd700" opacity="0.8"/>
</svg>